#!OML:ASF X:\für Bonn\!DataBase\2005_08_12_Daniel\c3d\Daniel.ASF
:FULLY-SPECIFIED
:DEGREES
1692
root -5.28466 16.9889 -2.66614 -65.223 -83.9107 55.7218
lowerback 15.063 -3.96681 -5.87848
upperback 4.9608 -6.43251 -1.92271
thorax -2.72442 -3.3212 2.3546
lowerneck -4.9451 3.22345 -6.9029
upperneck 2.94314 4.72983 -0.161039
head 1.60496 2.25856 1.25058
rclavicle -3.30231e-014 -2.03754e-014
rhumerus -42.4006 -24.3311 -67.7449
rradius 14.8817
rwrist 9.29464
rhand -19.3452 17.3807
rfingers 7.12502
rthumb 6.9719 -12.4844
lclavicle -3.30231e-014 -2.03754e-014
lhumerus -18.1299 28.0632 83.7027
lradius 51.0965
lwrist 23.0423
lhand -19.9635 0.127557
lfingers 7.12502
lthumb 6.37508 30.0116
rfemur -5.50966 -0.243324 12.8261
rtibia 40.7803
rfoot -21.3335 2.36933
rtoes -13.7256
lfemur -5.19658 -11.6046 -24.5625
ltibia 40.3918
lfoot -23.6114 -5.68522
ltoes 1.33047
1693
root -5.28359 16.9957 -2.66971 -65.6368 -84.015 56.2672
lowerback 14.8147 -3.97626 -5.77802
upperback 4.93224 -6.40829 -1.90033
thorax -2.63222 -3.30974 2.29851
lowerneck -4.86907 3.21749 -6.83679
upperneck 2.79089 4.7077 -0.136707
head 1.54379 2.25383 1.24153
rclavicle -3.3781e-014 8.84592e-015
rhumerus -42.0457 -24.5124 -68.2148
rradius 14.8838
rwrist 9.98697
rhand -18.3683 18.2052
rfingers 7.12502
rthumb 7.91486 -11.6266
lclavicle -3.3781e-014 8.84592e-015
lhumerus -18.9097 29.4799 83.71
lradius 49.8433
lwrist 22.7459
lhand -19.8784 0.39429
lfingers 7.12502
lthumb 6.45717 30.2759
rfemur -5.17069 0.525114 13.168
rtibia 40.0342
rfoot -21.8988 1.62237
rtoes -14.147
lfemur -4.94577 -11.9741 -24.6038
ltibia 39.8691
lfoot -24.0218 -5.18682
ltoes 1.07968
1694
root -5.27824 16.9975 -2.67246 -66.3371 -84.1228 57.0677
lowerback 14.644 -3.9698 -5.69805
upperback 4.9155 -6.37267 -1.86866
thorax -2.56641 -3.29263 2.268
lowerneck -4.82356 3.20847 -6.71813
upperneck 2.62084 4.68233 -0.176898
head 1.48485 2.24665 1.20335
rclavicle 5.86415e-015 -1.13307e-014
rhumerus -41.6296 -24.7071 -68.6236
rradius 14.8219
rwrist 11.007
rhand -17.4058 19.0677
rfingers 7.12502
rthumb 8.8438 -10.7269
lclavicle 5.86415e-015 -1.13307e-014
lhumerus -19.608 30.6762 83.6194
lradius 48.4365
lwrist 22.252
lhand -19.6971 0.572071
lfingers 7.12502
lthumb 6.63223 30.4482
rfemur -4.87615 1.37759 13.5268
rtibia 39.3993
rfoot -22.5092 0.759094
rtoes -14.5302
lfemur -4.67558 -12.3128 -24.654
ltibia 39.342
lfoot -24.3972 -4.68752
ltoes 0.966864
1695
root -5.27135 16.9987 -2.67411 -67.4519 -84.2554 58.2679
lowerback 14.5173 -3.94235 -5.5845
upperback 4.89196 -6.30913 -1.84796
thorax -2.53831 -3.26008 2.2082
lowerneck -4.81321 3.19729 -6.63118
upperneck 2.49553 4.65827 -0.15108
head 1.44465 2.24006 1.19355
rclavicle -6.8531e-014 -1.42131e-014
rhumerus -41.2364 -24.9923 -68.928
rradius 14.7322
rwrist 12.3966
rhand -16.4828 19.8736
rfingers 7.12502
rthumb 9.73438 -9.88147
lclavicle -6.8531e-014 -1.42131e-014
lhumerus -20.2904 31.6739 83.3885
lradius 46.913
lwrist 21.5588
lhand -19.3677 0.649079
lfingers 7.12502
lthumb 6.95024 30.515
rfemur -4.63199 2.33386 13.9003
rtibia 38.855
rfoot -23.1176 -0.139408
rtoes -14.7535
lfemur -4.38682 -12.6799 -24.7168
ltibia 38.8138
lfoot -24.778 -4.18287
ltoes 0.951324
1696
root -5.26024 16.9975 -2.67602 -68.8193 -84.383 59.6872
lowerback 14.4735 -3.90072 -5.47258
upperback 4.86973 -6.23409 -1.82742
thorax -2.55374 -3.2208 2.15484
lowerneck -4.7856 3.17371 -6.58591
upperneck 2.32623 4.61717 -0.105239
head 1.38676 2.226 1.19565
rclavicle 2.15433e-014 7.45443e-015
rhumerus -40.8083 -25.1708 -69.2922
rradius 14.6776
rwrist 13.84
rhand -15.6824 20.5068
rfingers 7.12502
rthumb 10.5065 -9.21066
lclavicle 2.15433e-014 7.45443e-015
lhumerus -20.9463 32.5727 83.0844
lradius 45.3096
lwrist 20.5774
lhand -19.0459 0.662813
lfingers 7.12502
lthumb 7.26088 30.5182
rfemur -4.4067 3.35126 14.2777
rtibia 38.3848
rfoot -23.7472 -1.05703
rtoes -14.9568
lfemur -4.08255 -13.1293 -24.83
ltibia 38.3033
lfoot -25.0882 -3.51962
ltoes 0.835338
1697
root -5.24855 16.9944 -2.67925 -70.4103 -84.5345 61.3006
lowerback 14.4625 -3.8449 -5.34105
upperback 4.85887 -6.14117 -1.8233
thorax -2.57976 -3.17283 2.07332
lowerneck -4.72555 3.15458 -6.45272
upperneck 2.15212 4.57577 -0.0975676
head 1.32419 2.21195 1.1697
rclavicle -1.06847e-015 1.2921e-015
rhumerus -40.3608 -25.2145 -69.7725
rradius 14.6622
rwrist 15.1776
rhand -15.0433 20.9727
rfingers 7.12502
rthumb 11.123 -8.71253
lclavicle -1.06847e-015 1.2921e-015
lhumerus -21.5493 33.4994 82.6576
lradius 43.5438
lwrist 19.2811
lhand -18.7229 0.47429
lfingers 7.12502
lthumb 7.57267 30.3187
rfemur -4.16927 4.37677 14.6879
rtibia 37.9537
rfoot -24.3424 -2.01774
rtoes -15.1552
lfemur -3.76159 -13.593 -24.925
ltibia 37.8255
lfoot -25.3875 -2.88388
ltoes 0.797639
